PathFileType	3	(X/Y/Z)	D:\MSKbioDyn\WearableRobot\20250106\S011\S011_static\S011_walking01.trc
DataRate	CameraRate	NumFrames	NumMarkers	Units	OrigDataRate	OrigDataStartFrame	OrigNumFrames
200.0	200.0	4	39	mm	200.0	1	1867	
Frame#	Time	LFHD			RFHD			LBHD			RBHD			C7			T10			CLAV			STRN			RBAK			LSHO			LUPA			LELB			LFRM			LWRA			LWRB			LFIN			RSHO			RUPA			RELB			RFRM			RWRA			RWRB			RFIN			LASI			RASI			LPSI			RPSI			LTHI			LKNE			LTIB			LANK			LHEE			LTOE			RTHI			RKNE			RTIB			RANK			RHEE			RTOE			
		X1	Y1	Z1	X2	Y2	Z2	X3	Y3	Z3	X4	Y4	Z4	X5	Y5	Z5	X6	Y6	Z6	X7	Y7	Z7	X8	Y8	Z8	X9	Y9	Z9	X10	Y10	Z10	X11	Y11	Z11	X12	Y12	Z12	X13	Y13	Z13	X14	Y14	Z14	X15	Y15	Z15	X16	Y16	Z16	X17	Y17	Z17	X18	Y18	Z18	X19	Y19	Z19	X20	Y20	Z20	X21	Y21	Z21	X22	Y22	Z22	X23	Y23	Z23	X24	Y24	Z24	X25	Y25	Z25	X26	Y26	Z26	X27	Y27	Z27	X28	Y28	Z28	X29	Y29	Z29	X30	Y30	Z30	X31	Y31	Z31	X32	Y32	Z32	X33	Y33	Z33	X34	Y34	Z34	X35	Y35	Z35	X36	Y36	Z36	X37	Y37	Z37	X38	Y38	Z38	X39	Y39	Z39	
1	-0.005	218.66159	1656.0736	-310.7449	204.69678	1645.0746	-179.07179	105.27257	1579.0092	-322.39444	95.954277	1561.4982	-186.01059	63.071495	1446.8848	-259.8215	27.602043	1139.7374	-245.10538	194.819	1368.105	-261.20255	234.21727	1169.2262	-264.92642	4.3557978	1258.2919	-195.4375	123.5265	1394.635	-437.60431	113.23582	1199.0901	-514.52271	173.72758	1049.0383	-520.59753	283.6684	992.24817	-519.51501	369.76389	919.90356	-447.53403	352.96463	901.03784	-512.19177	422.02808	866.7312	-500.93222	120.40446	1387.9977	-81.631157	57.328987	1209.5249	-25.681139	14.498214	1047.459	-34.067959	33.528259	923.63239	-2.8728018	55.998695	811.25043	-56.669601	4.8535404	817.48975	-5.1077771	29.443666	734.7981	3.4047613	215.47968	921.81104	-387.68027	238.30827	947.80273	-142.84673	20.994801	939.26465	-284.80453	28.294474	937.11536	-212.2601	150.79488	709.776	-444.67706	138.41405	458.36377	-434.71793	17.421364	384.1774	-435.93121	-183.38483	231.70148	-376.56375	-251.89272	282.9339	-307.19974	-159.69229	86.974884	-356.50583	232.15485	736.62756	-94.773178	250.50208	481.27512	-149.76019	213.73416	304.41962	-137.21609	204.74704	84.20842	-198.7178	125.21298	36.207134	-242.4548	352.46576	55.396549	-242.0332
2	0	218.65494	1656.906	-310.70117	204.69551	1645.9097	-178.85754	105.21996	1579.9307	-322.33716	95.888596	1562.3871	-185.97234	62.847198	1447.8112	-259.62552	27.133934	1140.7612	-244.56316	194.53853	1368.8617	-261.38669	233.77631	1170.0753	-265.00769	4.13761	1259.3348	-194.85506	122.87658	1395.4574	-437.53723	111.52635	1199.8646	-514.38593	170.65524	1049.2717	-519.9776	279.89365	990.67859	-519.67175	365.51764	917.23187	-448.23688	347.45605	898.32928	-512.73846	415.96814	862.74011	-501.79309	120.7021	1388.9524	-81.531013	58.673664	1210.021	-25.257757	16.931376	1047.4982	-33.642998	38.052818	923.79901	-2.6688156	61.351372	811.69324	-56.462902	10.619808	817.23492	-4.8504548	36.410122	735.46869	4.5657454	214.75395	922.95477	-387.77673	237.80623	948.42401	-143.01881	20.492956	940.06586	-284.34018	27.838966	938.0484	-211.69366	152.24611	710.93298	-444.56473	143.94945	459.73825	-434.72702	23.410772	385.71719	-436.01825	-178.1364	233.56055	-376.96432	-248.07253	282.12411	-306.89746	-151.64331	89.115456	-359.01459	231.07736	737.1452	-95.033852	246.75917	481.28168	-149.50087	209.3968	304.47775	-137.07153	199.29674	84.252602	-198.23602	118.17948	37.142651	-241.56021	346.94678	55.352638	-242.01939
3	0.005	218.60368	1657.7233	-310.66409	204.64221	1646.5504	-178.8047	105.10494	1580.8788	-322.32562	95.810722	1563.2885	-185.92455	62.67889	1448.7531	-259.3732	26.657867	1141.7245	-243.95303	194.26155	1369.8054	-261.43701	233.2485	1170.9857	-265.14673	3.9659021	1260.3945	-194.24089	122.20502	1396.3008	-437.49097	109.75313	1200.4094	-514.05591	167.54866	1049.5142	-519.45129	275.39313	988.91821	-519.60327	360.38043	913.92853	-448.28717	341.61383	895.5564	-513.15479	409.53595	858.52136	-502.46518	120.92355	1389.9091	-81.469124	60.548702	1210.5773	-24.764929	19.83429	1047.5321	-33.116142	42.423153	924.00977	-2.3598747	66.861176	812.28955	-56.201103	16.287565	817.22278	-4.3993945	43.326839	735.31531	5.1420484	213.99057	924.14618	-387.89987	237.28905	949.05011	-143.21426	19.944437	940.89508	-283.73355	27.733835	938.88135	-211.25282	153.58302	711.41962	-444.31198	149.60988	461.37247	-434.51303	29.277021	387.34344	-436.00818	-172.51848	235.03424	-377.37247	-243.88153	280.93417	-306.52292	-143.239	91.060371	-361.41864	230.03056	737.7135	-95.251289	242.90344	481.23016	-148.72519	204.88295	304.59763	-136.9368	193.67072	84.30172	-198.10039	112.46226	37.202122	-241.45094	340.92267	55.238602	-241.83716
4	0.01	218.59518	1658.5303	-310.64786	204.70912	1647.5029	-178.81403	104.96732	1581.7845	-322.32281	95.708809	1564.2399	-185.9023	62.476612	1449.6267	-259.17654	26.137201	1142.7809	-243.34901	193.94922	1370.6495	-261.55511	232.76335	1171.8671	-265.16837	3.7641594	1261.4753	-193.60579	121.51857	1397.3297	-437.45563	107.8952	1201.2468	-513.96655	164.48526	1049.7748	-518.86365	271.49518	987.42932	-519.70111	355.15094	910.66937	-448.77689	335.65341	892.61255	-513.51312	402.81604	854.28418	-503.23541	121.20522	1390.8782	-81.397873	62.326553	1211.1655	-24.425461	22.819801	1047.6337	-32.538971	46.897606	924.30115	-2.0637448	72.405617	812.91864	-56.061626	21.442461	817.27924	-4.1608505	50.204094	735.77069	5.6406965	213.19591	925.31091	-388.09009	236.72537	949.69055	-143.37633	19.265703	941.77081	-283.31027	26.726357	939.80023	-210.62198	155.28062	713.43939	-444.25723	154.89333	462.89496	-434.35297	35.106342	388.98788	-435.9158	-166.66882	236.14517	-377.89172	-239.55165	279.29449	-306.32486	-134.77298	92.567932	-363.4072	228.98257	738.27997	-95.179832	238.65385	481.21924	-148.74854	200.29991	304.7543	-136.74841	187.80069	84.323357	-198.21344	106.75879	37.288074	-241.41019	335.26651	55.129887	-241.70349
